<svg width="16" height="16" viewBox="0 0 16 16" fill="none" xmlns="http://www.w3.org/2000/svg">
<path d="M10.6667 3.99998L9.92962 2.52588C9.56418 1.795 8.81716 1.33331 8 1.33331C7.18285 1.33331 6.43583 1.795 6.07039 2.52588L5.33334 3.99998M2.66667 3.99998H13.3333M4.00001 3.99998H12V9.99998C12 11.2425 12 11.8637 11.797 12.3538C11.5264 13.0072 11.0072 13.5263 10.3538 13.797C9.86377 14 9.24252 14 8 14C6.75749 14 6.13624 14 5.64618 13.797C4.99277 13.5263 4.47364 13.0072 4.20299 12.3538C4.00001 11.8637 4.00001 11.2425 4.00001 9.99998V3.99998Z" stroke="#111111" stroke-width="1.5" stroke-linecap="round" stroke-linejoin="round"/>
</svg>
