<svg width="20" height="28" viewBox="0 0 20 28" fill="none" xmlns="http://www.w3.org/2000/svg">
<path d="M20 12.9101C20 12.2943 19.5041 11.7983 18.8883 11.7983C18.2725 11.7983 17.7766 12.2943 17.7766 12.9101C17.7766 16.7248 14.2888 19.8256 10 19.8256C5.71117 19.8256 2.22343 16.7248 2.22343 12.9101C2.22343 12.2943 1.72752 11.7983 1.11172 11.7983C0.495913 11.7983 0 12.2943 0 12.9101C0 17.6076 3.89646 21.4877 8.88828 21.9945V25.128H7.60218C6.98638 25.128 6.49046 25.624 6.49046 26.2398C6.49046 26.8556 6.98638 27.3515 7.60218 27.3515H12.3978C13.0136 27.3515 13.5095 26.8556 13.5095 26.2398C13.5095 25.624 13.0136 25.128 12.3978 25.128H11.1117V21.9945C16.1035 21.4877 20 17.6076 20 12.9101Z" fill="black"/>
<path d="M10 17.6785C12.7793 17.6785 15.03 15.4278 15.03 12.6485V5.67847C15.03 2.89918 12.7793 0.648499 10 0.648499C7.22071 0.648499 4.97003 2.89918 4.97003 5.67847V12.6485C4.97003 15.4278 7.22071 17.6785 10 17.6785ZM7.14987 5.67847C7.14987 4.10899 8.43052 2.82834 10 2.82834C11.5695 2.82834 12.8501 4.10899 12.8501 5.67847V12.6485C12.8501 14.218 11.5695 15.4986 10 15.4986C8.43052 15.4986 7.14987 14.218 7.14987 12.6485V5.67847Z" fill="black"/>
</svg>
