<svg width="16" height="16" viewBox="0 0 16 16" fill="none" xmlns="http://www.w3.org/2000/svg">
<g clip-path="url(#clip0_15_139)">
<path d="M15.3333 2.66668V6.66668M15.3333 6.66668H11.3333M15.3333 6.66668L12.24 3.76001C11.5235 3.04315 10.6371 2.51948 9.66346 2.23786C8.68984 1.95624 7.66074 1.92584 6.6722 2.14952C5.68365 2.37319 4.76787 2.84363 4.01032 3.51696C3.25276 4.19028 2.67812 5.04453 2.34 6.00001M0.666672 13.3333V9.33334M0.666672 9.33334H4.66667M0.666672 9.33334L3.76 12.24C4.4765 12.9569 5.36292 13.4805 6.33654 13.7622C7.31017 14.0438 8.33927 14.0742 9.32781 13.8505C10.3164 13.6268 11.2321 13.1564 11.9897 12.4831C12.7472 11.8097 13.3219 10.9555 13.66 10" stroke="black" stroke-width="1.5" stroke-linecap="round" stroke-linejoin="round"/>
</g>
<defs>
<clipPath id="clip0_15_139">
<rect width="16" height="16" fill="white"/>
</clipPath>
</defs>
</svg>
